<svg version="1.1" id="Layer_1" xmlns="http://www.w3.org/2000/svg" xmlns:xlink="http://www.w3.org/1999/xlink" x="0px" y="0px"
	 width="100%" viewBox="0 0 160 128" enable-background="new 0 0 160 128" xml:space="preserve">
<path fill="#000000" opacity="1.000000" stroke="none" 
	d="
M12.399996,129.000000 
	C13.030461,125.359093 15.558817,123.150879 18.868996,121.573357 
	C32.682926,114.990105 47.294727,111.281097 62.469315,110.026817 
	C72.388901,109.206894 81.913307,112.002716 91.326393,114.764481 
	C94.242523,115.620049 96.620819,115.462189 99.366165,114.004807 
	C105.234512,110.889534 111.224609,107.941475 117.366661,105.415741 
	C134.529449,98.358063 149.897430,109.411789 149.103348,128.567963 
	C148.250000,129.000000 147.500000,129.000000 146.457397,128.652069 
	C146.610977,120.571281 143.070236,114.636955 137.738174,109.477791 
	C134.948242,106.778320 131.532364,105.181236 127.809189,105.726700 
	C117.963730,107.169060 109.614777,112.272316 101.004417,116.925148 
	C102.069122,118.497620 103.324242,118.453178 104.389877,118.869743 
	C113.818153,122.555344 123.851395,124.531044 133.000000,129.000000 
	C129.638718,129.000000 126.277428,129.000000 122.209015,128.759003 
	C113.758926,124.772736 105.395226,122.782837 97.282646,120.106941 
	C93.490150,118.856010 85.708687,124.847610 85.000000,129.000000 
	C64.979103,129.000000 44.958210,129.000000 24.603580,128.704651 
	C24.820681,126.943321 26.386358,125.864983 25.938219,123.637321 
	C22.075466,124.571098 17.601440,123.916664 16.000000,129.000000 
	C14.933331,129.000000 13.866661,129.000000 12.399996,129.000000 
M76.871590,119.595169 
	C80.693680,119.269020 84.937256,122.635422 88.656296,118.078835 
	C70.700569,110.396393 53.377213,113.011063 35.634815,118.963219 
	C37.387527,121.608635 39.374798,121.017349 41.108299,121.056358 
	C45.788021,121.161644 50.445606,120.700172 54.989876,119.636841 
	C58.087273,118.912071 61.140251,118.953064 63.703354,120.573120 
	C68.210266,123.421814 72.173622,122.562202 76.871590,119.595169 
z"/>
<path fill="#000000" opacity="1.000000" stroke="none" 
	d="
M79.811058,88.350243 
	C73.102600,81.874763 66.470093,80.204010 56.798943,81.484703 
	C41.126087,83.560165 29.039425,76.520546 26.467773,57.388161 
	C25.396612,49.419025 25.744661,41.717766 28.372286,34.265526 
	C33.621593,19.377895 47.032879,15.384984 60.058624,16.257277 
	C81.166489,17.670795 86.421761,32.788712 85.839828,50.122608 
	C85.568108,58.216282 83.852837,65.957237 78.588478,72.516342 
	C76.820473,74.719193 78.338326,76.380730 80.047867,77.490479 
	C82.969086,79.386787 86.006363,81.150208 89.150032,82.642662 
	C91.448021,83.733604 92.313469,85.264107 92.309464,87.713600 
	C92.302177,92.172760 91.047958,93.240967 86.901695,91.709732 
	C84.570267,90.848732 82.376335,89.615402 79.811058,88.350243 
M63.317463,71.985718 
	C68.374199,69.982956 71.146881,66.044495 72.660118,61.015076 
	C75.065308,53.021191 75.347397,45.014351 73.063782,36.928253 
	C71.352180,30.867596 68.053223,26.381674 61.501633,25.292870 
	C54.012737,24.048298 46.775032,24.093229 41.910793,31.364355 
	C36.754383,39.072231 36.762691,47.619415 38.059982,56.346813 
	C40.158367,70.463577 49.082478,76.250999 63.317463,71.985718 
z"/>
<path fill="#000000" opacity="1.000000" stroke="none" 
	d="
M119.924545,81.262909 
	C113.453056,82.736229 107.625328,81.882927 101.964760,79.506546 
	C96.801735,77.339035 96.026802,75.663521 97.414261,69.757698 
	C99.410446,68.728409 100.872093,70.270187 102.446053,70.963661 
	C106.771103,72.869217 111.175148,74.172943 115.974785,73.644524 
	C120.500404,73.146255 124.122002,71.035812 125.391022,66.643288 
	C126.697716,62.120373 124.437904,58.698376 120.599541,56.100830 
	C115.620277,52.731197 109.689636,51.267628 104.795395,47.644150 
	C99.037186,43.381016 96.954819,37.812420 97.941895,31.087561 
	C98.951126,24.211620 103.226677,19.892721 109.766434,17.623421 
	C115.481316,15.640351 121.234978,15.740002 126.965797,17.158884 
	C132.735458,18.587383 134.172119,21.421110 132.227814,27.396858 
	C127.035965,26.128048 122.080902,23.272943 116.418816,24.135412 
	C112.951729,24.663532 110.390091,26.410534 109.464340,29.714825 
	C108.521194,33.081169 108.950638,36.456406 112.200676,38.616074 
	C114.541702,40.171696 117.060951,41.466648 119.540108,42.804882 
	C122.461334,44.381741 125.489937,45.768257 128.357147,47.434868 
	C134.695694,51.119251 137.954865,56.679806 137.140213,64.022423 
	C136.332138,71.305679 132.778687,76.842957 125.476151,79.362236 
	C123.756615,79.955437 122.050652,80.587997 119.924545,81.262909 
z"/>
</svg>